<svg xmlns="http://www.w3.org/2000/svg" viewBox="0 0 1100 1720" width="1100" height="1720" font-family="Segoe UI, Arial, sans-serif" font-size="12">
  <defs>
    <marker id="arr" markerWidth="9" markerHeight="7" refX="9" refY="3.5" orient="auto">
      <polygon points="0 0,9 3.5,0 7" fill="#444"/>
    </marker>
    <marker id="arr_g" markerWidth="9" markerHeight="7" refX="9" refY="3.5" orient="auto">
      <polygon points="0 0,9 3.5,0 7" fill="#2a7a2a"/>
    </marker>
    <marker id="arr_r" markerWidth="9" markerHeight="7" refX="9" refY="3.5" orient="auto">
      <polygon points="0 0,9 3.5,0 7" fill="#b03030"/>
    </marker>
    <!-- gradient backgrounds -->
    <linearGradient id="taskGrad" x1="0%" y1="0%" x2="0%" y2="100%">
      <stop offset="0%" style="stop-color:#e8eeff;stop-opacity:1"/>
      <stop offset="100%" style="stop-color:#cdd6f7;stop-opacity:1"/>
    </linearGradient>
    <linearGradient id="gwGrad" x1="0%" y1="0%" x2="100%" y2="100%">
      <stop offset="0%" style="stop-color:#fff8dc;stop-opacity:1"/>
      <stop offset="100%" style="stop-color:#f0d860;stop-opacity:1"/>
    </linearGradient>
    <linearGradient id="extGrad" x1="0%" y1="0%" x2="0%" y2="100%">
      <stop offset="0%" style="stop-color:#edf7ed;stop-opacity:1"/>
      <stop offset="100%" style="stop-color:#c0e8c0;stop-opacity:1"/>
    </linearGradient>
    <filter id="shadow" x="-10%" y="-10%" width="120%" height="120%">
      <feDropShadow dx="1" dy="2" stdDeviation="2" flood-color="#00000030"/>
    </filter>
  </defs>

  <!-- ====== TITLE ====== -->
  <text x="550" y="32" text-anchor="middle" font-size="18" font-weight="bold" fill="#1a1a2e">BPMN: Покупка книги — от корзины до подтверждения оплаты</text>
  <text x="550" y="52" text-anchor="middle" font-size="11" fill="#666">Обозначения: ◯ событие · ▭ задача · ◇ шлюз · [Актор] — метка над задачей</text>

  <!-- ====== LEGEND ====== -->
  <rect x="20" y="62" width="260" height="88" rx="6" fill="#f9f9f9" stroke="#ccc" stroke-width="1"/>
  <text x="30" y="80" font-size="11" font-weight="bold" fill="#333">Легенда</text>
  <circle cx="40" cy="98" r="10" fill="#c8f0c8" stroke="#2a7a2a" stroke-width="2"/>
  <text x="58" y="102" font-size="11" fill="#333">Стартовое / завершающее событие</text>
  <rect x="30" y="110" width="20" height="14" rx="3" fill="url(#taskGrad)" stroke="#5566cc" stroke-width="1.5"/>
  <text x="58" y="122" font-size="11" fill="#333">Задача (task)</text>
  <rect x="30" y="128" width="14" height="14" rx="2" transform="rotate(45 37 135)" fill="url(#gwGrad)" stroke="#bba000" stroke-width="1.5"/>
  <text x="58" y="140" font-size="11" fill="#333">Шлюз (gateway)</text>

  <!-- ====== START EVENT ====== -->
  <circle cx="550" cy="100" r="18" fill="#c8f0c8" stroke="#2a7a2a" stroke-width="2.5" filter="url(#shadow)"/>
  <text x="550" y="105" text-anchor="middle" font-size="11" fill="#1a5c1a">Старт</text>
  <text x="550" y="80" text-anchor="middle" font-size="10" fill="#888" font-style="italic">[Покупатель]</text>
  <text x="620" y="104" font-size="10" fill="#555">Пользователь нажимает</text>
  <text x="620" y="116" font-size="10" fill="#555">«Оформить заказ»</text>

  <!-- Start → ValidateToken -->
  <line x1="550" y1="118" x2="550" y2="148" stroke="#444" stroke-width="1.5" marker-end="url(#arr)"/>

  <!-- ====== T1: Проверка JWT-токена ====== -->
  <rect x="450" y="148" width="200" height="48" rx="8" fill="url(#taskGrad)" stroke="#5566cc" stroke-width="1.5" filter="url(#shadow)"/>
  <text x="550" y="168" text-anchor="middle" font-size="12" fill="#1a1a4e" font-weight="bold">Валидация JWT-токена</text>
  <text x="550" y="183" text-anchor="middle" font-size="10" fill="#444">API Gateway</text>
  <text x="550" y="142" text-anchor="middle" font-size="10" fill="#888" font-style="italic">[API Gateway]</text>

  <!-- T1 → GW_Auth -->
  <line x1="550" y1="196" x2="550" y2="226" stroke="#444" stroke-width="1.5" marker-end="url(#arr)"/>

  <!-- ====== GW1: Токен валиден? ====== -->
  <rect x="530" y="226" width="40" height="40" rx="4" transform="rotate(45 550 246)" fill="url(#gwGrad)" stroke="#bba000" stroke-width="2" filter="url(#shadow)"/>
  <text x="550" y="244" text-anchor="middle" font-size="11" fill="#4a3a00">Токен</text>
  <text x="550" y="257" text-anchor="middle" font-size="11" fill="#4a3a00">валиден?</text>

  <!-- GW1 No → Redirect Login -->
  <line x1="522" y1="246" x2="380" y2="246" stroke="#b03030" stroke-width="1.5" marker-end="url(#arr_r)" stroke-dasharray="5,3"/>
  <rect x="280" y="222" width="100" height="40" rx="7" fill="#fdecea" stroke="#b03030" stroke-width="1.5"/>
  <text x="330" y="238" text-anchor="middle" font-size="11" fill="#7a1010">Редирект</text>
  <text x="330" y="251" text-anchor="middle" font-size="11" fill="#7a1010">на логин</text>
  <text x="350" y="218" text-anchor="middle" font-size="10" fill="#b03030">Нет</text>

  <!-- GW1 Yes → T2 -->
  <line x1="550" y1="266" x2="550" y2="296" stroke="#2a7a2a" stroke-width="1.5" marker-end="url(#arr_g)"/>
  <text x="558" y="283" font-size="10" fill="#2a7a2a">Да</text>

  <!-- ====== T2: Получить данные корзины ====== -->
  <rect x="450" y="296" width="200" height="48" rx="8" fill="url(#taskGrad)" stroke="#5566cc" stroke-width="1.5" filter="url(#shadow)"/>
  <text x="550" y="316" text-anchor="middle" font-size="12" fill="#1a1a4e" font-weight="bold">Получить данные корзины</text>
  <text x="550" y="331" text-anchor="middle" font-size="10" fill="#444">Cart Service</text>
  <text x="550" y="290" text-anchor="middle" font-size="10" fill="#888" font-style="italic">[Cart Service]</text>

  <!-- T2 → T3 -->
  <line x1="550" y1="344" x2="550" y2="374" stroke="#444" stroke-width="1.5" marker-end="url(#arr)"/>

  <!-- ====== T3: Получить профиль пользователя ====== -->
  <rect x="450" y="374" width="200" height="48" rx="8" fill="url(#taskGrad)" stroke="#5566cc" stroke-width="1.5" filter="url(#shadow)"/>
  <text x="550" y="394" text-anchor="middle" font-size="12" fill="#1a1a4e" font-weight="bold">Получить профиль</text>
  <text x="550" y="409" text-anchor="middle" font-size="10" fill="#444">User Profile Service</text>
  <text x="550" y="368" text-anchor="middle" font-size="10" fill="#888" font-style="italic">[User Profile Service]</text>

  <!-- T3 → T4 -->
  <line x1="550" y1="422" x2="550" y2="452" stroke="#444" stroke-width="1.5" marker-end="url(#arr)"/>

  <!-- ====== T4: Отобразить форму checkout ====== -->
  <rect x="450" y="452" width="200" height="48" rx="8" fill="url(#taskGrad)" stroke="#5566cc" stroke-width="1.5" filter="url(#shadow)"/>
  <text x="550" y="472" text-anchor="middle" font-size="12" fill="#1a1a4e" font-weight="bold">Показать форму checkout</text>
  <text x="550" y="487" text-anchor="middle" font-size="10" fill="#444">(адрес + способ оплаты)</text>
  <text x="550" y="446" text-anchor="middle" font-size="10" fill="#888" font-style="italic">[Frontend / Покупатель]</text>

  <!-- T4 → T5 -->
  <line x1="550" y1="500" x2="550" y2="530" stroke="#444" stroke-width="1.5" marker-end="url(#arr)"/>

  <!-- ====== T5: Пользователь подтверждает данные ====== -->
  <rect x="450" y="530" width="200" height="48" rx="8" fill="url(#taskGrad)" stroke="#5566cc" stroke-width="1.5" filter="url(#shadow)"/>
  <text x="550" y="550" text-anchor="middle" font-size="12" fill="#1a1a4e" font-weight="bold">Подтвердить данные заказа</text>
  <text x="550" y="565" text-anchor="middle" font-size="10" fill="#444">(нажать «Подтвердить»)</text>
  <text x="550" y="524" text-anchor="middle" font-size="10" fill="#888" font-style="italic">[Покупатель]</text>

  <!-- T5 → T6 -->
  <line x1="550" y1="578" x2="550" y2="608" stroke="#444" stroke-width="1.5" marker-end="url(#arr)"/>

  <!-- ====== T6: Проверить наличие товара ====== -->
  <rect x="450" y="608" width="200" height="48" rx="8" fill="url(#taskGrad)" stroke="#5566cc" stroke-width="1.5" filter="url(#shadow)"/>
  <text x="550" y="628" text-anchor="middle" font-size="12" fill="#1a1a4e" font-weight="bold">Проверить наличие товара</text>
  <text x="550" y="643" text-anchor="middle" font-size="10" fill="#444">Inventory Service</text>
  <text x="550" y="602" text-anchor="middle" font-size="10" fill="#888" font-style="italic">[Inventory Service]</text>

  <!-- T6 → GW2 -->
  <line x1="550" y1="656" x2="550" y2="686" stroke="#444" stroke-width="1.5" marker-end="url(#arr)"/>

  <!-- ====== GW2: Товар в наличии? ====== -->
  <rect x="530" y="686" width="40" height="40" rx="4" transform="rotate(45 550 706)" fill="url(#gwGrad)" stroke="#bba000" stroke-width="2" filter="url(#shadow)"/>
  <text x="550" y="704" text-anchor="middle" font-size="11" fill="#4a3a00">Товар</text>
  <text x="550" y="717" text-anchor="middle" font-size="11" fill="#4a3a00">в наличии?</text>

  <!-- GW2 No → Error out-of-stock -->
  <line x1="522" y1="706" x2="380" y2="706" stroke="#b03030" stroke-width="1.5" marker-end="url(#arr_r)" stroke-dasharray="5,3"/>
  <rect x="280" y="682" width="100" height="48" rx="7" fill="#fdecea" stroke="#b03030" stroke-width="1.5"/>
  <text x="330" y="699" text-anchor="middle" font-size="11" fill="#7a1010">Ошибка:</text>
  <text x="330" y="712" text-anchor="middle" font-size="11" fill="#7a1010">«Товар</text>
  <text x="330" y="725" text-anchor="middle" font-size="11" fill="#7a1010">закончился»</text>
  <text x="350" y="678" text-anchor="middle" font-size="10" fill="#b03030">Нет</text>

  <!-- GW2 Yes → T7 -->
  <line x1="550" y1="726" x2="550" y2="756" stroke="#2a7a2a" stroke-width="1.5" marker-end="url(#arr_g)"/>
  <text x="558" y="743" font-size="10" fill="#2a7a2a">Да</text>

  <!-- ====== T7: Soft-резервирование стока ====== -->
  <rect x="450" y="756" width="200" height="48" rx="8" fill="url(#taskGrad)" stroke="#5566cc" stroke-width="1.5" filter="url(#shadow)"/>
  <text x="550" y="776" text-anchor="middle" font-size="12" fill="#1a1a4e" font-weight="bold">Soft-резервировать сток</text>
  <text x="550" y="791" text-anchor="middle" font-size="10" fill="#444">Inventory Service (30 мин TTL)</text>
  <text x="550" y="750" text-anchor="middle" font-size="10" fill="#888" font-style="italic">[Inventory Service]</text>

  <!-- T7 → T8 -->
  <line x1="550" y1="804" x2="550" y2="834" stroke="#444" stroke-width="1.5" marker-end="url(#arr)"/>

  <!-- ====== T8: Создать заказ ====== -->
  <rect x="450" y="834" width="200" height="48" rx="8" fill="url(#taskGrad)" stroke="#5566cc" stroke-width="1.5" filter="url(#shadow)"/>
  <text x="550" y="854" text-anchor="middle" font-size="12" fill="#1a1a4e" font-weight="bold">Создать заказ (PENDING_PAYMENT)</text>
  <text x="550" y="869" text-anchor="middle" font-size="10" fill="#444">Order Service → Event Bus</text>
  <text x="550" y="828" text-anchor="middle" font-size="10" fill="#888" font-style="italic">[Order Service]</text>

  <!-- T8 → T9 -->
  <line x1="550" y1="882" x2="550" y2="912" stroke="#444" stroke-width="1.5" marker-end="url(#arr)"/>

  <!-- ====== T9: Инициировать платёж ====== -->
  <rect x="450" y="912" width="200" height="48" rx="8" fill="url(#taskGrad)" stroke="#5566cc" stroke-width="1.5" filter="url(#shadow)"/>
  <text x="550" y="932" text-anchor="middle" font-size="12" fill="#1a1a4e" font-weight="bold">Инициировать платёж</text>
  <text x="550" y="947" text-anchor="middle" font-size="10" fill="#444">Payment Service → Gateway</text>
  <text x="550" y="906" text-anchor="middle" font-size="10" fill="#888" font-style="italic">[Payment Service]</text>

  <!-- T9 → GW3 -->
  <line x1="550" y1="960" x2="550" y2="990" stroke="#444" stroke-width="1.5" marker-end="url(#arr)"/>

  <!-- ====== GW3: Требуется 3DS? ====== -->
  <rect x="530" y="990" width="40" height="40" rx="4" transform="rotate(45 550 1010)" fill="url(#gwGrad)" stroke="#bba000" stroke-width="2" filter="url(#shadow)"/>
  <text x="550" y="1008" text-anchor="middle" font-size="11" fill="#4a3a00">Требуется</text>
  <text x="550" y="1021" text-anchor="middle" font-size="11" fill="#4a3a00">3DS?</text>

  <!-- GW3 Yes → T10 -->
  <line x1="578" y1="1010" x2="710" y2="1010" stroke="#444" stroke-width="1.5" marker-end="url(#arr)"/>
  <text x="588" y="1006" font-size="10" fill="#555">Да</text>
  <rect x="710" y="986" width="180" height="48" rx="8" fill="url(#taskGrad)" stroke="#5566cc" stroke-width="1.5" filter="url(#shadow)"/>
  <text x="800" y="1006" text-anchor="middle" font-size="12" fill="#1a1a4e" font-weight="bold">Открыть 3DS iframe</text>
  <text x="800" y="1021" text-anchor="middle" font-size="10" fill="#444">Frontend ↔ Банк</text>
  <text x="800" y="980" text-anchor="middle" font-size="10" fill="#888" font-style="italic">[Frontend / Банк]</text>

  <!-- T10 → GW4 -->
  <line x1="800" y1="1034" x2="800" y2="1070" stroke="#444" stroke-width="1.5" marker-end="url(#arr)"/>
  <rect x="780" y="1070" width="40" height="40" rx="4" transform="rotate(45 800 1090)" fill="url(#gwGrad)" stroke="#bba000" stroke-width="2" filter="url(#shadow)"/>
  <text x="800" y="1088" text-anchor="middle" font-size="11" fill="#4a3a00">3DS</text>
  <text x="800" y="1101" text-anchor="middle" font-size="11" fill="#4a3a00">пройдена?</text>

  <!-- GW4 No → 3DS fail -->
  <line x1="828" y1="1090" x2="950" y2="1090" stroke="#b03030" stroke-width="1.5" marker-end="url(#arr_r)" stroke-dasharray="5,3"/>
  <rect x="950" y="1066" width="120" height="48" rx="7" fill="#fdecea" stroke="#b03030" stroke-width="1.5"/>
  <text x="1010" y="1083" text-anchor="middle" font-size="11" fill="#7a1010">3DS провалена</text>
  <text x="1010" y="1098" text-anchor="middle" font-size="10" fill="#7a1010">→ предложить</text>
  <text x="1010" y="1111" text-anchor="middle" font-size="10" fill="#7a1010">другой метод</text>
  <text x="840" y="1086" font-size="10" fill="#b03030">Нет</text>

  <!-- GW4 Yes → merge with GW3 No path below -->
  <line x1="800" y1="1110" x2="800" y2="1140" stroke="#2a7a2a" stroke-width="1.5" marker-end="url(#arr_g)"/>
  <text x="808" y="1127" font-size="10" fill="#2a7a2a">Да</text>
  <line x1="800" y1="1140" x2="550" y2="1140" stroke="#2a7a2a" stroke-width="1.5"/>
  <line x1="550" y1="1030" x2="550" y2="1140" stroke="#2a7a2a" stroke-width="1.5" stroke-dasharray="4,2"/>
  <text x="532" y="1086" font-size="10" fill="#2a7a2a" transform="rotate(-90 532 1086)">Нет</text>
  <line x1="550" y1="1140" x2="550" y2="1160" stroke="#444" stroke-width="1.5" marker-end="url(#arr)"/>

  <!-- ====== T11: Банк авторизует транзакцию ====== -->
  <rect x="450" y="1160" width="200" height="48" rx="8" fill="url(#extGrad)" stroke="#2a6e2a" stroke-width="1.5" filter="url(#shadow)"/>
  <text x="550" y="1180" text-anchor="middle" font-size="12" fill="#1a3a1a" font-weight="bold">Авторизовать транзакцию</text>
  <text x="550" y="1195" text-anchor="middle" font-size="10" fill="#444">Банк покупателя</text>
  <text x="550" y="1154" text-anchor="middle" font-size="10" fill="#888" font-style="italic">[Банк]</text>

  <!-- T11 → GW5 -->
  <line x1="550" y1="1208" x2="550" y2="1238" stroke="#444" stroke-width="1.5" marker-end="url(#arr)"/>

  <!-- ====== GW5: Платёж авторизован? ====== -->
  <rect x="530" y="1238" width="40" height="40" rx="4" transform="rotate(45 550 1258)" fill="url(#gwGrad)" stroke="#bba000" stroke-width="2" filter="url(#shadow)"/>
  <text x="550" y="1256" text-anchor="middle" font-size="11" fill="#4a3a00">Платёж</text>
  <text x="550" y="1269" text-anchor="middle" font-size="11" fill="#4a3a00">успешен?</text>

  <!-- GW5 No → Payment Failed -->
  <line x1="522" y1="1258" x2="380" y2="1258" stroke="#b03030" stroke-width="1.5" marker-end="url(#arr_r)" stroke-dasharray="5,3"/>
  <rect x="260" y="1234" width="120" height="48" rx="7" fill="#fdecea" stroke="#b03030" stroke-width="1.5"/>
  <text x="320" y="1251" text-anchor="middle" font-size="11" fill="#7a1010">Платёж отклонён</text>
  <text x="320" y="1266" text-anchor="middle" font-size="10" fill="#7a1010">(недост. средства,</text>
  <text x="320" y="1279" text-anchor="middle" font-size="10" fill="#7a1010">карта заблокирована)</text>
  <text x="350" y="1230" font-size="10" fill="#b03030">Нет</text>

  <!-- GW5 No → Offer retry -->
  <line x1="260" y1="1258" x2="200" y2="1258" stroke="#b03030" stroke-width="1.5"/>
  <line x1="200" y1="1258" x2="200" y2="1360" stroke="#b03030" stroke-width="1.5" stroke-dasharray="5,3"/>
  <rect x="140" y="1360" width="120" height="48" rx="7" fill="#fdecea" stroke="#b03030" stroke-width="1.5"/>
  <text x="200" y="1377" text-anchor="middle" font-size="11" fill="#7a1010">Предложить</text>
  <text x="200" y="1392" text-anchor="middle" font-size="10" fill="#7a1010">сменить способ</text>
  <text x="200" y="1405" text-anchor="middle" font-size="10" fill="#7a1010">оплаты</text>
  <text x="160" y="1420" font-size="10" fill="#888" font-style="italic">[Frontend / Покупатель]</text>

  <!-- GW5 Yes → T12 -->
  <line x1="550" y1="1278" x2="550" y2="1308" stroke="#2a7a2a" stroke-width="1.5" marker-end="url(#arr_g)"/>
  <text x="558" y="1295" font-size="10" fill="#2a7a2a">Да</text>

  <!-- ====== T12: Списать средства и зафиксировать платёж ====== -->
  <rect x="450" y="1308" width="200" height="48" rx="8" fill="url(#taskGrad)" stroke="#5566cc" stroke-width="1.5" filter="url(#shadow)"/>
  <text x="550" y="1325" text-anchor="middle" font-size="12" fill="#1a1a4e" font-weight="bold">Зафиксировать платёж</text>
  <text x="550" y="1340" text-anchor="middle" font-size="10" fill="#444">Payment Service → Event Bus</text>
  <text x="550" y="1302" text-anchor="middle" font-size="10" fill="#888" font-style="italic">[Payment Service]</text>

  <!-- T12 → T13 -->
  <line x1="550" y1="1356" x2="550" y2="1386" stroke="#444" stroke-width="1.5" marker-end="url(#arr)"/>

  <!-- ====== T13: Обновить статус заказа → PAID ====== -->
  <rect x="450" y="1386" width="200" height="48" rx="8" fill="url(#taskGrad)" stroke="#5566cc" stroke-width="1.5" filter="url(#shadow)"/>
  <text x="550" y="1406" text-anchor="middle" font-size="12" fill="#1a1a4e" font-weight="bold">Статус заказа → PAID</text>
  <text x="550" y="1421" text-anchor="middle" font-size="10" fill="#444">Order Service</text>
  <text x="550" y="1380" text-anchor="middle" font-size="10" fill="#888" font-style="italic">[Order Service]</text>

  <!-- T13 → T14 -->
  <line x1="550" y1="1434" x2="550" y2="1464" stroke="#444" stroke-width="1.5" marker-end="url(#arr)"/>

  <!-- ====== T14: Отправить email-подтверждение ====== -->
  <rect x="450" y="1464" width="200" height="48" rx="8" fill="url(#taskGrad)" stroke="#5566cc" stroke-width="1.5" filter="url(#shadow)"/>
  <text x="550" y="1484" text-anchor="middle" font-size="12" fill="#1a1a4e" font-weight="bold">Отправить подтверждение</text>
  <text x="550" y="1499" text-anchor="middle" font-size="10" fill="#444">Notification Service → Email</text>
  <text x="550" y="1458" text-anchor="middle" font-size="10" fill="#888" font-style="italic">[Notification Service]</text>

  <!-- T14 → T15 -->
  <line x1="550" y1="1512" x2="550" y2="1542" stroke="#444" stroke-width="1.5" marker-end="url(#arr)"/>

  <!-- ====== T15: Показать экран успеха ====== -->
  <rect x="450" y="1542" width="200" height="48" rx="8" fill="url(#taskGrad)" stroke="#5566cc" stroke-width="1.5" filter="url(#shadow)"/>
  <text x="550" y="1562" text-anchor="middle" font-size="12" fill="#1a1a4e" font-weight="bold">Показать экран успеха</text>
  <text x="550" y="1577" text-anchor="middle" font-size="10" fill="#444">Order Summary</text>
  <text x="550" y="1536" text-anchor="middle" font-size="10" fill="#888" font-style="italic">[Frontend / Покупатель]</text>

  <!-- T15 → End -->
  <line x1="550" y1="1590" x2="550" y2="1630" stroke="#444" stroke-width="1.5" marker-end="url(#arr)"/>

  <!-- ====== END EVENT ====== -->
  <circle cx="550" cy="1650" r="18" fill="#c8f0c8" stroke="#2a7a2a" stroke-width="4" filter="url(#shadow)"/>
  <text x="550" y="1655" text-anchor="middle" font-size="11" fill="#1a5c1a" font-weight="bold">Конец</text>
  <text x="620" y="1654" font-size="10" fill="#555">Заказ подтверждён,</text>
  <text x="620" y="1666" font-size="10" fill="#555">email получен</text>

  <!-- ====== TIMEOUT side note ====== -->
  <rect x="730" y="834" width="180" height="56" rx="8" fill="#fff8dc" stroke="#d4b000" stroke-width="1.5" stroke-dasharray="6,3"/>
  <text x="820" y="854" text-anchor="middle" font-size="11" fill="#5a4000" font-weight="bold">Таймаут 30 мин</text>
  <text x="820" y="869" text-anchor="middle" font-size="10" fill="#5a4000">TTL Job: снимает резерв,</text>
  <text x="820" y="882" text-anchor="middle" font-size="10" fill="#5a4000">заказ → CANCELLED</text>
  <line x1="650" y1="858" x2="730" y2="858" stroke="#d4b000" stroke-width="1.5" stroke-dasharray="4,3"/>
</svg>
